<svg width="12" height="11" viewBox="0 0 12 11" fill="none" xmlns="http://www.w3.org/2000/svg">
<path d="M10.8518 0.540312H1.0683C0.64028 0.540312 0.292265 0.888327 0.292265 1.31634V7.76656C0.292265 8.19457 0.64028 8.54259 1.0683 8.54259H4.12343V9.89096H2.49687C2.2476 9.89096 2.04551 10.093 2.04551 10.3423C2.04551 10.5916 2.2476 10.7937 2.49687 10.7937H9.42327C9.67254 10.7937 9.87463 10.5916 9.87463 10.3423C9.87463 10.093 9.67254 9.89096 9.42327 9.89096H7.79671V8.54259H10.8518C11.2799 8.54259 11.6279 8.19457 11.6279 7.76656V1.31634C11.6279 0.888327 11.2799 0.540312 10.8518 0.540312ZM6.894 9.89096H5.02614V8.54259H6.894V9.89096ZM1.19792 7.63988H1.19498V1.44302H10.7252C10.7254 4.3502 10.7258 5.92145 10.7261 6.77041L10.7261 7.01285C10.7262 7.35028 10.7263 7.53684 10.7262 7.63988H10.7202H10.7129H10.7053H10.6975H10.6896H10.6815H10.6732H10.6648H10.6561H10.6473H10.6383H10.6292H10.6198H10.6103H10.6006H10.5908H10.5808H10.5706H10.5602H10.5497H10.539H10.5281H10.5171H10.5059H10.4945H10.483H10.4713H10.4595H10.4475H10.4353H10.423H10.4105H10.3979H10.3851H10.3722H10.3591H10.3458H10.3324H10.3188H10.3051H10.2912H10.2772H10.2631H10.2487H10.2343H10.2197H10.2049H10.19H10.175H10.1598H10.1445H10.129H10.1134H10.0976H10.0817H10.0657H10.0495H10.0332H10.0168H10.0002H9.98348H9.96663H9.94965H9.93254H9.91529H9.89791H9.88041H9.86277H9.84501H9.82712H9.8091H9.79096H9.77269H9.7543H9.73578H9.71714H9.69838H9.6795H9.6605H9.64138H9.62214H9.60278H9.58331H9.56372H9.54401H9.52419H9.50426H9.48421H9.46405H9.44378H9.4234H9.4029H9.3823H9.36159H9.34078H9.31986H9.29883H9.27769H9.25646H9.23512H9.21367H9.19213H9.17048H9.14874H9.12689H9.10495H9.08291H9.06077H9.03853H9.0162H8.99378H8.97126H8.94865H8.92595H8.90316H8.88027H8.8573H8.83424H8.81109H8.78785H8.76452H8.74111H8.71762H8.69404H8.67038H8.64664H8.62281H8.5989H8.57492H8.55085H8.52671H8.50249H8.47819H8.45382H8.42937H8.40484H8.38025H8.35558H8.33084H8.30602H8.28114H8.25619H8.23117H8.20608H8.18092H8.1557H8.13041H8.10506H8.07965H8.05417H8.02863H8.00302H7.97736H7.95164H7.92585H7.90001H7.87412H7.84816H7.82215H7.79609H7.76997H7.7438H7.71757H7.6913H7.66497H7.63859H7.61216H7.58569H7.55917H7.5326H7.50598H7.47932H7.45261H7.42586H7.39907H7.37223H7.34536H7.31844H7.29149H7.26449H7.23746H7.21039H7.18328H7.15614H7.12896H7.10175H7.07451H7.04723H7.01992H6.99259H6.96522H6.93782H6.91039H6.88294H6.85546H6.82795H6.80042H6.77286H6.74528H6.71768H6.69006H6.66241H6.63475H6.60706H6.57936H6.55163H6.5239H6.49614H6.46837H6.44058H6.41279H6.38497H6.35715H6.32931H6.30147H6.27361H6.24574H6.21787H6.18999H6.1621H6.13421H6.10631H6.07841H6.0505H6.02259H5.99468H5.96677H5.93886H5.91095H5.88304H5.85513H5.82723H5.79933H5.77143H5.74354H5.71566H5.68778H5.65991H5.63205H5.6042H5.57636H5.54853H5.52072H5.49291H5.46512H5.43735H5.40958H5.38184H5.35411H5.3264H5.29871H5.27103H5.24338H5.21575H5.18814H5.16055H5.13298H5.10544H5.07792H5.05043H5.02297H4.99553H4.96812H4.94074H4.91339H4.88607H4.85878H4.83152H4.8043H4.77711H4.74995H4.72283H4.69575H4.6687H4.64169H4.61472H4.58779H4.5609H4.53405H4.50724H4.48047H4.45375H4.42707H4.40043H4.37385H4.3473H4.32081H4.29436H4.26797H4.24162H4.21532H4.18908H4.16288H4.13674H4.11066H4.08463H4.05865H4.03273H4.00687H3.98106H3.95532H3.92963H3.904H3.87844H3.85293H3.82749H3.80212H3.7768H3.75155H3.72637H3.70126H3.67621H3.65123H3.62632H3.60148H3.57671H3.55201H3.52739H3.50284H3.47836H3.45395H3.42963H3.40537H3.3812H3.3571H3.33309H3.30915H3.28529H3.26151H3.23782H3.21421H3.19068H3.16724H3.14388H3.12061H3.09742H3.07433H3.05132H3.0284H3.00557H2.98283H2.96018H2.93763H2.91517H2.8928H2.87053H2.84835H2.82627H2.80429H2.78241H2.76062H2.73894H2.71735H2.69587H2.67449H2.65321H2.63204H2.61097H2.59H2.56914H2.54839H2.52775H2.50722H2.48679H2.46648H2.44627H2.42618H2.4062H2.38633H2.36658H2.34695H2.32743H2.30802H2.28874H2.26957H2.25052H2.23159H2.21278H2.19409H2.17553H2.15709H2.13877H2.12058H2.10251H2.08457H2.06676H2.04907H2.03152H2.01409H1.99679H1.97963H1.96259H1.94569H1.92893H1.91229H1.8958H1.87944H1.86321H1.84712H1.83118H1.81537H1.7997H1.78417H1.76878H1.75354H1.73844H1.72348H1.70867H1.69401H1.67949H1.66511H1.65089H1.63681H1.62289H1.60911H1.59549H1.58202H1.5687H1.55554H1.54253H1.52967H1.51697H1.50443H1.49205H1.47983H1.46776H1.45585H1.44411H1.43253H1.42111H1.40985H1.39876H1.38783H1.37707H1.36648H1.35605H1.34579H1.3357H1.32578H1.31603H1.30646H1.29705H1.28782H1.27876H1.26988H1.26117H1.25264H1.24428H1.23611H1.22811H1.22029H1.21265H1.20519H1.19792ZM10.7258 7.75924C10.7257 7.76095 10.7257 7.76159 10.7257 7.76139L10.7258 7.75924Z" fill="#3F3F3F" stroke="#3F3F3F" stroke-width="0.25336"/>
</svg>
